<svg id="Capa_1" data-name="Capa 1" xmlns="http://www.w3.org/2000/svg" viewBox="0 0 110.2 110.2"><defs><style>.cls-1{fill:#f59e1b;}.cls-2{fill:#fff;}</style></defs><rect class="cls-1" width="110.2" height="110.2" rx="13.57"/><path class="cls-2" d="M-30,18.22a2.2,2.2,0,0,1-1.35.46,2.16,2.16,0,0,1-1.35-.46c-1.48-1.16-36-33.12-36-61.77A37.39,37.39,0,0,1-31.35-80.88,37.39,37.39,0,0,1,6-43.55C6-14.9-28.53,17.06-30,18.22ZM-31.35-61A17.43,17.43,0,0,0-48.79-43.55,17.44,17.44,0,0,0-31.35-26.11,17.43,17.43,0,0,0-13.92-43.55,17.43,17.43,0,0,0-31.35-61Z" transform="translate(86.2 86.2)"/></svg>