<svg id="Capa_1" data-name="Capa 1" xmlns="http://www.w3.org/2000/svg" viewBox="0 0 110.2 110.2"><defs><style>.cls-1{fill:#f59e1b;}.cls-2{fill:#fff;}</style></defs><rect class="cls-1" width="110.2" height="110.2" rx="13.57"/><path class="cls-2" d="M4-33.44h9.34c0-24-18.1-42-42.1-42v9.35C-9.83-66.14,4-52.39,4-33.44Z" transform="translate(86.2 86.2)"/><path class="cls-2" d="M-28.76-47.45c9.82,0,14,4.19,14,14H-5.4c0-15.07-8.29-23.36-23.36-23.36Zm16,25.43a4.67,4.67,0,0,0-6.5.2l-11.18,11.5c-2.7-.51-8.11-2.2-13.68-7.76s-7.25-11-7.75-13.67l11.49-11.19a4.67,4.67,0,0,0,.2-6.5l-17.27-19a4.68,4.68,0,0,0-6.5-.41l-10.14,8.7a4.68,4.68,0,0,0-1.35,3c-.07,1.17-1.41,28.84,20.05,50.31C-36.68,11.92-13.24,13.29-6.78,13.29c1,0,1.52,0,1.68,0a4.64,4.64,0,0,0,3-1.36L6.62,1.75a4.68,4.68,0,0,0-.4-6.5Z" transform="translate(86.2 86.2)"/></svg>