<svg id="Whatsapp" xmlns="http://www.w3.org/2000/svg" viewBox="0 0 102.84 102.84"><defs><style>.cls-1{fill:#fff;}.cls-2{fill:#00c100;}</style></defs><rect class="cls-1" x="7.72" y="13.6" width="86.76" height="77.76"/><path class="cls-2" d="M-152.29-63a28.48,28.48,0,0,0-28.46,28.44,28.48,28.48,0,0,0,4.35,15.14l.68,1.07-2.88,10.5,10.77-2.83,1,.62a28.35,28.35,0,0,0,14.48,4h0a28.48,28.48,0,0,0,28.45-28.44,28.22,28.22,0,0,0-8.32-20.12A28.22,28.22,0,0,0-152.29-63Zm16.72,40.66c-.71,2-4.13,3.82-5.77,4.07a11.67,11.67,0,0,1-5.38-.34,49.12,49.12,0,0,1-4.88-1.8c-8.58-3.7-14.18-12.34-14.61-12.91s-3.49-4.64-3.49-8.85a9.58,9.58,0,0,1,3-7.13,3.15,3.15,0,0,1,2.29-1.07c.57,0,1.13,0,1.64,0s1.22-.2,1.92,1.47,2.42,5.92,2.64,6.35a1.58,1.58,0,0,1,.07,1.49,5.5,5.5,0,0,1-.86,1.43c-.42.51-.89,1.12-1.28,1.51s-.87.88-.37,1.74a26,26,0,0,0,4.75,5.92A23.67,23.67,0,0,0-149-26.15c.85.42,1.35.36,1.85-.22s2.14-2.5,2.71-3.35,1.14-.71,1.93-.43,5,2.35,5.84,2.78,1.42.64,1.64,1A7.34,7.34,0,0,1-135.57-22.31Z" transform="translate(203.72 85.4)"/><path class="cls-2" d="M-114.69-85.4h-75.23a13.8,13.8,0,0,0-13.8,13.8V3.64a13.8,13.8,0,0,0,13.8,13.8h75.23a13.8,13.8,0,0,0,13.81-13.8V-71.6A13.8,13.8,0,0,0-114.69-85.4ZM-152.07-.29h0A34.22,34.22,0,0,1-165.88-3.2c-1.73-.76-1.82-1.45-3.65-1L-185-1.36c.22-1.35,2.08-11.86,2.08-11.86L-182-17a13.91,13.91,0,0,0-1.06-3.1,34.22,34.22,0,0,1,13.93-44.1,34.23,34.23,0,0,1,17.1-4.58,34,34,0,0,1,24.21,10,34,34,0,0,1,10,24.21A34.27,34.27,0,0,1-152.07-.29Z" transform="translate(203.72 85.4)"/></svg>